# xmcd
#
# Track frame offsets: 
#        150
#        13062
#        32697
#        49402
#        63097
#        76425
#        90130
#        107702
#        119572
#        130275
#        150862
#        169100
#        180845
#        199775
#
# Disc length: 2881 seconds
#
# Revision: 2
# Processed by: cddbd v1.5.2PL0 Copyright (c) Steve Scherf et al.
# Submitted via: ExactAudioCopyFreeDBPlugin 1.0
#
DISCID=a60b3f0e
DTITLE=Various Artist - Mr. Music Country 10-97
DYEAR=1900
DGENRE=Country
TTITLE0=Trudy Miner - Lonely Girl
TTITLE1=Tim Hassler - Blue Train
TTITLE2=Jacob Lyda - The First Stone
TTITLE3=Duane Stailey - Holding On to Nothing
TTITLE4=Kristy Ashford Davis - Our Country's into Country
TTITLE5=Red Jenkins - The Beginning of Goodbye
TTITLE6=Jesse Chavez - Waitin' for Your Love to Come Around
TTITLE7=Dale Watson - Burning in My Mind
TTITLE8=Helen Dunnaway - Perfect Stranger
TTITLE9=Simon Richmond - She Took Her Ring Off Her Finger
TTITLE10=Montana Rose - Baby It's You
TTITLE11=Gary Lee Hale - Genuine Made in Texas
TTITLE12=J.D. Winningham - Tears of Hope
TTITLE13=Diane Elliott - Shatter Me
EXTD=
EXTT0=
EXTT1=
EXTT2=
EXTT3=
EXTT4=
EXTT5=
EXTT6=
EXTT7=
EXTT8=
EXTT9=
EXTT10=
EXTT11=
EXTT12=
EXTT13=
PLAYORDER=
